:FULLY-SPECIFIED
:FORCE-ALL-JOINTS-BE-3DOF
:DEGREES
194
root 8.13613 16.6406 -10.2153 6.98335 4.0014 -2.88292
lfemur -39.1574 5.98827 -19.7562
ltibia 44.546 0 0
lfoot -15.0632 9.86361 0
ltoes -12.5009 0 0
rfemur -9.66784 5.42552 28.9091
rtibia 23.9356 0 0
rfoot -20.782 1.66492 0
rtoes -9.58836 0 0
lowerback -4.20934 1.59453 0.975826
upperback -1.36175 2.04959 3.34479
thorax 0.871419 1.03149 2.98997
lowerneck -13.8182 -6.73692 -15.6293
upperneck 13.2653 -8.70288 16.2152
head 7.79882 -3.66029 7.03894
lclavicle 1.9066e-14 2.6177e-14 0
lhumerus -48.9866 -9.73976 95.6631
lradius 30.8072 0 0
lwrist 13.946 0 0
lhand -12.5439 -24.7509 0
lfingers 7.12502 0 0
lthumb 13.5328 4.79092 0
rclavicle 1.9066e-14 2.6177e-14 0
rhumerus -36.3058 8.44487 -78.1536
rradius 48.1321 0 0
rwrist -24.7195 0 0
rhand -34.2406 -28.1469 0
rfingers 7.12502 0 0
rthumb -7.41182 -57.9972 0
195
root 8.14654 16.6323 -10.0025 6.95015 3.77217 -3.06166
lfemur -39.657 5.46458 -19.4731
ltibia 41.5817 0 0
lfoot -14.9703 9.52168 0
ltoes -12.9224 0 0
rfemur -8.15486 5.45752 29.1729
rtibia 22.6505 0 0
rfoot -20.5536 1.98549 0
rtoes -8.63805 0 0
lowerback -4.38435 1.56919 1.03342
upperback -1.05294 1.99605 3.35708
thorax 1.29089 1.00153 2.97997
lowerneck -14.9413 -6.75082 -15.1148
upperneck 13.6804 -8.66757 15.8397
head 8.08721 -3.59626 6.81666
lclavicle 1.17375e-14 2.52088e-14 0
lhumerus -48.5765 -9.6262 95.4967
lradius 30.2943 0 0
lwrist 13.1482 0 0
lhand -12.4711 -24.5851 0
lfingers 7.12502 0 0
lthumb 13.6031 4.95249 0
rclavicle 1.17375e-14 2.52088e-14 0
rhumerus -35.5706 8.73836 -78.4922
rradius 48.7204 0 0
rwrist -25.0599 0 0
rhand -34.1663 -28.6921 0
rfingers 7.12502 0 0
rthumb -7.34008 -58.5449 0
196
root 8.15761 16.6233 -9.7885 6.92313 3.54685 -3.2438
lfemur -40.1077 4.90777 -19.1601
ltibia 38.5638 0 0
lfoot -14.8805 9.19035 0
ltoes -13.2198 0 0
rfemur -6.61845 5.46287 29.4355
rtibia 21.3166 0 0
rfoot -20.2882 2.33989 0
rtoes -7.64807 0 0
lowerback -4.57897 1.53477 1.0875
upperback -0.715314 1.92889 3.36654
thorax 1.75158 0.964467 2.96965
lowerneck -16.2103 -6.77365 -14.5326
upperneck 14.1485 -8.63749 15.4138
head 8.41438 -3.52865 6.56339
lclavicle 2.61368e-15 2.29596e-14 0
lhumerus -48.1139 -9.54378 95.3305
lradius 29.7604 0 0
lwrist 12.3309 0 0
lhand -12.4849 -24.3687 0
lfingers 7.12502 0 0
lthumb 13.5898 5.16948 0
rclavicle 2.61368e-15 2.29596e-14 0
rhumerus -34.8032 9.07544 -78.8621
rradius 49.3171 0 0
rwrist -25.3789 0 0
rhand -34.0459 -29.2639 0
rfingers 7.12502 0 0
rthumb -7.22388 -59.1206 0
197
root 8.1665 16.6159 -9.61863 6.90166 3.37501 -3.3876
lfemur -40.4394 4.45384 -18.9098
ltibia 36.1259 0 0
lfoot -14.8079 8.90389 0
ltoes -13.3751 0 0
rfemur -5.39308 5.45597 29.644
rtibia 20.2501 0 0
rfoot -20.0619 2.63751 0
rtoes -6.79144 0 0
lowerback -4.74363 1.4975 1.12094
upperback -0.413425 1.86134 3.372
thorax 2.15818 0.927544 2.96493
lowerneck -17.3641 -6.80048 -14.0044
upperneck 14.5666 -8.61813 15.0284
head 8.71088 -3.47094 6.33266
lclavicle -5.94515e-15 2.06442e-14 0
lhumerus -47.6768 -9.4874 95.1833
lradius 29.3185 0 0
lwrist 11.6595 0 0
lhand -12.5449 -24.1574 0
lfingers 7.12502 0 0
lthumb 13.5319 5.38399 0
rclavicle -5.94515e-15 2.06442e-14 0
rhumerus -34.1282 9.36385 -79.1703
rradius 49.7969 0 0
rwrist -25.6184 0 0
rhand -33.9234 -29.7514 0
rfingers 7.12502 0 0
rthumb -7.10567 -59.6121 0
198
root 8.17036 16.6125 -9.53802 6.88507 3.30623 -3.45131
lfemur -40.5822 4.23874 -18.8146
ltibia 34.9016 0 0
lfoot -14.7664 8.69653 0
ltoes -13.3703 0 0
rfemur -4.81324 5.45126 29.7459
rtibia 19.7674 0 0
rfoot -19.9509 2.78773 0
rtoes -6.24118 0 0
lowerback -4.82873 1.46362 1.11666
upperback -0.211824 1.80668 3.37229
thorax 2.41537 0.898018 2.97176
lowerneck -18.1415 -6.82641 -13.652
upperneck 14.8312 -8.61502 14.7744
head 8.90724 -3.43661 6.17801
lclavicle -1.15788e-14 1.94772e-14 0
lhumerus -47.343 -9.45198 95.0739
lradius 29.0817 0 0
lwrist 11.2995 0 0
lhand -12.6109 -24.0068 0
lfingers 7.12502 0 0
lthumb 13.4683 5.53813 0
rclavicle -1.15788e-14 1.94772e-14 0
rhumerus -33.6699 9.51134 -79.3238
rradius 50.0343 0 0
rwrist -25.7202 0 0
rhand -33.8428 -30.0441 0
rfingers 7.12502 0 0
rthumb -7.02788 -59.9073 0
199
root 8.16636 16.6155 -9.59183 6.87273 3.39009 -3.3932
lfemur -40.4661 4.39844 -18.9672
ltibia 35.5243 0 0
lfoot -14.7702 8.60254 0
ltoes -13.1875 0 0
rfemur -5.2134 5.46315 29.6884
rtibia 20.1847 0 0
rfoot -20.0315 2.69992 0
rtoes -6.17031 0 0
lowerback -4.78468 1.43934 1.05755
upperback -0.175062 1.77814 3.36623
thorax 2.42786 0.883143 2.99606
lowerneck -18.2814 -6.84652 -13.5971
upperneck 14.8394 -8.63365 14.7427
head 8.93402 -3.43915 6.15299
lclavicle -1.19271e-14 2.06736e-14 0
lhumerus -47.1904 -9.43243 95.021
lradius 29.1628 0 0
lwrist 11.4164 0 0
lhand -12.6424 -23.9726 0
lfingers 7.12502 0 0
lthumb 13.4379 5.57398 0
rclavicle -1.19271e-14 2.06736e-14 0
rhumerus -33.5527 9.42566 -79.2296
rradius 49.904 0 0
rwrist -25.6261 0 0
rhand -33.8481 -30.0312 0
rfingers 7.12502 0 0
rthumb -7.03297 -59.8943 0
200
root 8.17956 16.6055 -9.415 6.91371 3.1311 -3.58349
lfemur -40.8 3.83525 -18.4525
ltibia 33.4068 0 0
lfoot -14.7752 8.84036 0
ltoes -13.5586 0 0
rfemur -3.86453 5.41613 29.8798
rtibia 18.7569 0 0
rfoot -19.6875 3.0162 0
rtoes -6.14006 0 0
lowerback -4.95962 1.49004 1.21942
upperback -0.180743 1.82952 3.38344
thorax 2.52312 0.909533 2.93299
lowerneck -18.2924 -6.80953 -13.5699
upperneck 14.9483 -8.58699 14.6982
head 8.96024 -3.41792 6.14151
lclavicle -1.46429e-14 1.61936e-14 0
lhumerus -47.4428 -9.50576 95.1341
lradius 28.8454 0 0
lwrist 10.9814 0 0
lhand -12.6489 -23.9776 0
lfingers 7.12502 0 0
lthumb 13.4317 5.56935 0
rclavicle -1.46429e-14 1.61936e-14 0
rhumerus -33.688 9.74376 -79.5661
rradius 50.3402 0 0
rwrist -25.8894 0 0
rhand -33.7616 -30.167 0
rfingers 7.12502 0 0
rthumb -6.94948 -60.0329 0
201
root 8.19831 16.5916 -9.18866 6.99608 2.76746 -3.84602
lfemur -41.208 3.05803 -17.6689
ltibia 30.8741 0 0
lfoot -14.8278 9.37105 0
ltoes -14.0518 0 0
rfemur -2.0901 5.33688 30.1139
rtibia 16.757 0 0
rfoot -19.1651 3.43182 0
rtoes -6.40744 0 0
lowerback -5.19585 1.58668 1.47436
upperback -0.296053 1.93738 3.41025
thorax 2.54075 0.96576 2.83152
lowerneck -17.9179 -6.74232 -13.7059
upperneck 14.9824 -8.52008 14.7553
head 8.90211 -3.40434 6.20047
lclavicle -1.65718e-14 9.39441e-15 0
lhumerus -48.0057 -9.66305 95.3808
lradius 28.4883 0 0
lwrist 10.5322 0 0
lhand -12.6662 -24.0528 0
lfingers 7.12502 0 0
lthumb 13.415 5.49525 0
rclavicle -1.65718e-14 9.39441e-15 0
rhumerus -34.161 10.1697 -80.012
rradius 50.8706 0 0
rwrist -26.2164 0 0
rhand -33.6467 -30.1989 0
rfingers 7.12502 0 0
rthumb -6.83859 -60.0683 0
202
root 8.21796 16.577 -8.96087 7.0903 2.38908 -4.1171
lfemur -41.6063 2.25803 -16.8357
ltibia 28.3833 0 0
lfoot -14.8908 9.99811 0
ltoes -14.5702 0 0
rfemur -0.293427 5.24315 30.3445
rtibia 14.6924 0 0
rfoot -18.6235 3.85806 0
rtoes -6.83019 0 0
lowerback -5.43596 1.69831 1.75306
upperback -0.466867 2.0655 3.43831
thorax 2.5034 1.03281 2.71825
lowerneck -17.3444 -6.66382 -13.928
upperneck 14.9661 -8.44852 14.8707
head 8.79796 -3.39716 6.29709
lclavicle -1.76297e-14 1.88845e-15 0
lhumerus -48.696 -9.85017 95.6775
lradius 28.151 0 0
lwrist 10.1207 0 0
lhand -12.6889 -24.1603 0
lfingers 7.12502 0 0
lthumb 13.3931 5.38917 0
rclavicle -1.76297e-14 1.88845e-15 0
rhumerus -34.7874 10.6101 -80.4692
rradius 51.3961 0 0
rwrist -26.5465 0 0
rhand -33.5319 -30.171 0
rfingers 7.12502 0 0
rthumb -6.72769 -60.0439 0
203
root 8.23384 16.5651 -8.77966 7.16683 2.08585 -4.33301
lfemur -41.9113 1.62649 -16.172
ltibia 26.3916 0 0
lfoot -14.9273 10.5251 0
ltoes -15.0167 0 0
rfemur 1.12219 5.15268 30.5253
rtibia 13.0703 0 0
rfoot -18.2221 4.20617 0
rtoes -7.26606 0 0
lowerback -5.62253 1.79395 1.9862
upperback -0.639059 2.17761 3.45925
thorax 2.43374 1.09165 2.61978
lowerneck -16.758 -6.593 -14.1593
upperneck 14.9241 -8.38789 15.0008
head 8.68613 -3.39515 6.39859
lclavicle -1.77323e-14 -4.71193e-15 0
lhumerus -49.3304 -10.013 95.9406
lradius 27.8931 0 0
lwrist 9.79905 0 0
lhand -12.7114 -24.2623 0
lfingers 7.12502 0 0
lthumb 13.3714 5.28857 0
rclavicle -1.77323e-14 -4.71193e-15 0
rhumerus -35.3832 10.9715 -80.8397
rradius 51.8172 0 0
rwrist -26.8195 0 0
rhand -33.4453 -30.1272 0
rfingers 7.12502 0 0
rthumb -6.64414 -60.0029 0
204
root 8.24132 16.5592 -8.69307 7.19612 1.94769 -4.43004
lfemur -42.039 1.35464 -15.8971
ltibia 25.3562 0 0
lfoot -14.9002 10.7554 0
ltoes -15.2944 0 0
rfemur 1.75345 5.0832 30.6101
rtibia 12.3979 0 0
rfoot -18.1201 4.38742 0
rtoes -7.57279 0 0
lowerback -5.69813 1.84264 2.10446
upperback -0.758506 2.23749 3.46473
thorax 2.35444 1.12328 2.56271
lowerneck -16.3453 -6.54879 -14.3229
upperneck 14.8809 -8.35378 15.1023
head 8.60493 -3.39708 6.47219
lclavicle -1.67954e-14 -8.79438e-15 0
lhumerus -49.7256 -10.0974 96.0864
lradius 27.774 0 0
lwrist 9.61936 0 0
lhand -12.7283 -24.321 0
lfingers 7.12502 0 0
lthumb 13.3551 5.23093 0
rclavicle -1.67954e-14 -8.79438e-15 0
rhumerus -35.764 11.1605 -81.0252
rradius 52.0349 0 0
rwrist -26.9749 0 0
rhand -33.4155 -30.1118 0
rfingers 7.12502 0 0
rthumb -6.61534 -59.9884 0
205
root 8.23574 16.5626 -8.74914 7.14863 2.06448 -4.3445
lfemur -41.9059 1.63373 -16.2302
ltibia 25.7344 0 0
lfoot -14.7725 10.4926 0
ltoes -15.3063 0 0
rfemur 1.19704 5.05245 30.5529
rtibia 13.1824 0 0
rfoot -18.4767 4.31308 0
rtoes -7.60812 0 0
lowerback -5.60536 1.81341 2.03851
upperback -0.771081 2.20889 3.44638
thorax 2.28816 1.10868 2.57363
lowerneck -16.2925 -6.55015 -14.3419
upperneck 14.8609 -8.36179 15.1317
head 8.59271 -3.4017 6.4851
lclavicle -1.47349e-14 -8.74653e-15 0
lhumerus -49.6985 -10.0493 96.0312
lradius 27.8532 0 0
lwrist 9.63369 0 0
lhand -12.734 -24.2986 0
lfingers 7.12502 0 0
lthumb 13.3496 5.25371 0
rclavicle -1.47349e-14 -8.74653e-15 0
rhumerus -35.7458 11.0835 -80.9277
rradius 51.9499 0 0
rwrist -26.9523 0 0
rhand -33.4707 -30.1688 0
rfingers 7.12502 0 0
rthumb -6.66864 -60.0438 0
